<svg xmlns="http://www.w3.org/2000/svg" style="display: none;">
  <symbol id="cat">
    <svg width="24" height="24" viewBox="0 0 24 24" fill="none" xmlns="http://www.w3.org/2000/svg">
      <path d="M12.9297 10C12.3828 10 10.0039 10.0547 8.5 12.3516V10C8.5 8.57812 7.29688 7.375 5.875 7.375C5.38281 7.375 5 7.78516 5 8.25C5 8.74219 5.38281 9.125 5.875 9.125C6.33984 9.125 6.75 9.53516 6.75 10V17C6.75 17.9844 7.51562 18.75 8.5 18.75H13.3125C13.5312 18.75 13.75 18.5586 13.75 18.3125V17.875C13.75 17.4102 13.3398 17 12.875 17H12L15.5 14.375V18.3125C15.5 18.5586 15.6914 18.75 15.9375 18.75H16.8125C17.0312 18.75 17.25 18.5586 17.25 18.3125V12.6797C16.9492 12.7617 16.6758 12.8164 16.375 12.8164C14.6797 12.8164 13.2578 11.6133 12.9297 10ZM17.25 7.375H15.5L13.75 5.625V9.31641C13.75 10.7656 14.8984 11.9414 16.375 11.9414C17.8242 11.9414 19 10.7656 19 9.31641V5.625L17.25 7.375ZM15.2812 9.5625C15.0352 9.5625 14.8438 9.37109 14.8438 9.125C14.8438 8.90625 15.0352 8.6875 15.2812 8.6875C15.5 8.6875 15.7188 8.90625 15.7188 9.125C15.7188 9.37109 15.5 9.5625 15.2812 9.5625ZM17.4688 9.5625C17.2227 9.5625 17.0312 9.37109 17.0312 9.125C17.0312 8.90625 17.2227 8.6875 17.4688 8.6875C17.6875 8.6875 17.9062 8.90625 17.9062 9.125C17.9062 9.37109 17.6875 9.5625 17.4688 9.5625Z" fill="#222222"/>
    </svg>
  </symbol>
  <symbol id="dog">
    <svg width="24" height="24" viewBox="0 0 24 24" fill="none" xmlns="http://www.w3.org/2000/svg">
      <path d="M12.2734 10.875H7.625C7.13281 10.875 6.75 10.4922 6.75 10C6.75 9.53516 6.33984 9.125 5.875 9.125C5.38281 9.125 5 9.53516 5 10C5 11.1484 5.71094 12.1055 6.75 12.4883V18.3125C6.75 18.5586 6.94141 18.75 7.1875 18.75H8.9375C9.15625 18.75 9.375 18.5586 9.375 18.3125V15.25H13.75V18.3125C13.75 18.5586 13.9414 18.75 14.1875 18.75H15.9375C16.1562 18.75 16.375 18.5586 16.375 18.3125V12.3516L12.2734 10.875ZM19 7.8125C19 7.59375 18.7812 7.375 18.5625 7.375H16.8125L16.5938 6.99219C16.457 6.71875 16.1289 6.5 15.8281 6.5H14.3516L13.6133 5.76172C13.3398 5.48828 12.875 5.67969 12.875 6.0625V10.1641L16.375 11.4219V10.4375H17.25C18.207 10.4375 19 9.67188 19 8.6875V7.8125ZM15.9375 7.8125C15.9375 8.05859 15.7188 8.25 15.5 8.25C15.2539 8.25 15.0625 8.05859 15.0625 7.8125C15.0625 7.59375 15.2539 7.375 15.5 7.375C15.7188 7.375 15.9375 7.59375 15.9375 7.8125Z" fill="#222222"/>
    </svg>
  </symbol>
  <symbol id="map-pin">
    <svg xmlns="http://www.w3.org/2000/svg" fill="none" viewBox="0 0 24 24" stroke-width="1.5" stroke="currentColor" class="w-6 h-6">
      <path stroke-linecap="round" stroke-linejoin="round" d="M15 10.5a3 3 0 11-6 0 3 3 0 016 0z" />
      <path stroke-linecap="round" stroke-linejoin="round" d="M19.5 10.5c0 7.142-7.5 11.25-7.5 11.25S4.5 17.642 4.5 10.5a7.5 7.5 0 1115 0z" />
    </svg>
  </symbol>
  <symbol id="calendar">
    <svg xmlns="http://www.w3.org/2000/svg" fill="none" viewBox="0 0 24 24" stroke-width="1.5" stroke="currentColor" class="w-6 h-6">
      <path stroke-linecap="round" stroke-linejoin="round" d="M6.75 3v2.25M17.25 3v2.25M3 18.75V7.5a2.25 2.25 0 012.25-2.25h13.5A2.25 2.25 0 0121 7.5v11.25m-18 0A2.25 2.25 0 005.25 21h13.5A2.25 2.25 0 0021 18.75m-18 0v-7.5A2.25 2.25 0 015.25 9h13.5A2.25 2.25 0 0121 11.25v7.5" />
    </svg>
  </symbol>
  <symbol id="github-mark-white">
    <svg xmlns="http://www.w3.org/2000/svg" viewBox="0 0 30 30" fill="none" stroke-width="1.5">
      <path fill-rule="evenodd" clip-rule="evenodd" d="M15.0099 3C8.36875 3 3 8.40833 3 15.0992C3 20.4475 6.43994 24.9748 11.2121 26.5771C11.8087 26.6976 12.0272 26.3168 12.0272 25.9965C12.0272 25.716 12.0076 24.7545 12.0076 23.7527C8.6667 24.474 7.97099 22.3104 7.97099 22.3104C7.43409 20.9082 6.63858 20.5478 6.63858 20.5478C5.54511 19.8066 6.71823 19.8066 6.71823 19.8066C7.93117 19.8868 8.56763 21.0486 8.56763 21.0486C9.64118 22.8913 11.3711 22.3707 12.0671 22.0501C12.1664 21.2688 12.4847 20.728 12.8228 20.4276C10.1582 20.1471 7.35469 19.1055 7.35469 14.458C7.35469 13.1359 7.8316 12.0543 8.58729 11.213C8.46807 10.9126 8.0504 9.67043 8.70677 8.00787C8.70677 8.00787 9.72083 7.6873 12.0073 9.24981C12.9863 8.98497 13.9958 8.85024 15.0099 8.84911C16.024 8.84911 17.0577 8.98948 18.0123 9.24981C20.299 7.6873 21.3131 8.00787 21.3131 8.00787C21.9695 9.67043 21.5515 10.9126 21.4323 11.213C22.2079 12.0543 22.6652 13.1359 22.6652 14.458C22.6652 19.1055 19.8617 20.1269 17.1772 20.4276C17.6148 20.8081 17.9924 21.5292 17.9924 22.6711C17.9924 24.2936 17.9727 25.5957 17.9727 25.9962C17.9727 26.3168 18.1915 26.6976 18.7879 26.5774C23.56 24.9745 26.9999 20.4475 26.9999 15.0992C27.0196 8.40833 21.6312 3 15.0099 3Z" fill="none"/>
    </svg>
  </symbol>
</svg>