<svg xmlns="http://www.w3.org/2000/svg" style="display: none;">
  <symbol id="cat" viewBox="0 0 24 24">
    <svg width="24" height="24" viewBox="0 0 24 24" fill="none" xmlns="http://www.w3.org/2000/svg">
      <path d="M12.9297 10C12.3828 10 10.0039 10.0547 8.5 12.3516V10C8.5 8.57812 7.29688 7.375 5.875 7.375C5.38281 7.375 5 7.78516 5 8.25C5 8.74219 5.38281 9.125 5.875 9.125C6.33984 9.125 6.75 9.53516 6.75 10V17C6.75 17.9844 7.51562 18.75 8.5 18.75H13.3125C13.5312 18.75 13.75 18.5586 13.75 18.3125V17.875C13.75 17.4102 13.3398 17 12.875 17H12L15.5 14.375V18.3125C15.5 18.5586 15.6914 18.75 15.9375 18.75H16.8125C17.0312 18.75 17.25 18.5586 17.25 18.3125V12.6797C16.9492 12.7617 16.6758 12.8164 16.375 12.8164C14.6797 12.8164 13.2578 11.6133 12.9297 10ZM17.25 7.375H15.5L13.75 5.625V9.31641C13.75 10.7656 14.8984 11.9414 16.375 11.9414C17.8242 11.9414 19 10.7656 19 9.31641V5.625L17.25 7.375ZM15.2812 9.5625C15.0352 9.5625 14.8438 9.37109 14.8438 9.125C14.8438 8.90625 15.0352 8.6875 15.2812 8.6875C15.5 8.6875 15.7188 8.90625 15.7188 9.125C15.7188 9.37109 15.5 9.5625 15.2812 9.5625ZM17.4688 9.5625C17.2227 9.5625 17.0312 9.37109 17.0312 9.125C17.0312 8.90625 17.2227 8.6875 17.4688 8.6875C17.6875 8.6875 17.9062 8.90625 17.9062 9.125C17.9062 9.37109 17.6875 9.5625 17.4688 9.5625Z" fill="#222222"/>
    </svg>
  </symbol>
  <symbol id="dog" viewBox="0 0 24 24">
    <svg width="24" height="24" viewBox="0 0 24 24" fill="none" xmlns="http://www.w3.org/2000/svg">
      <path d="M12.2734 10.875H7.625C7.13281 10.875 6.75 10.4922 6.75 10C6.75 9.53516 6.33984 9.125 5.875 9.125C5.38281 9.125 5 9.53516 5 10C5 11.1484 5.71094 12.1055 6.75 12.4883V18.3125C6.75 18.5586 6.94141 18.75 7.1875 18.75H8.9375C9.15625 18.75 9.375 18.5586 9.375 18.3125V15.25H13.75V18.3125C13.75 18.5586 13.9414 18.75 14.1875 18.75H15.9375C16.1562 18.75 16.375 18.5586 16.375 18.3125V12.3516L12.2734 10.875ZM19 7.8125C19 7.59375 18.7812 7.375 18.5625 7.375H16.8125L16.5938 6.99219C16.457 6.71875 16.1289 6.5 15.8281 6.5H14.3516L13.6133 5.76172C13.3398 5.48828 12.875 5.67969 12.875 6.0625V10.1641L16.375 11.4219V10.4375H17.25C18.207 10.4375 19 9.67188 19 8.6875V7.8125ZM15.9375 7.8125C15.9375 8.05859 15.7188 8.25 15.5 8.25C15.2539 8.25 15.0625 8.05859 15.0625 7.8125C15.0625 7.59375 15.2539 7.375 15.5 7.375C15.7188 7.375 15.9375 7.59375 15.9375 7.8125Z" fill="#222222"/>
    </svg>
  </symbol>
</svg>